<?xml version="1.0" encoding="UTF-8"?>
<!DOCTYPE svg PUBLIC "-//W3C//DTD SVG 1.1//EN" "http://www.w3.org/Graphics/SVG/1.1/DTD/svg11.dtd">
<!-- Creator: CorelDRAW X8 -->
<svg xmlns="http://www.w3.org/2000/svg" xml:space="preserve" width="0.7in" height="0.7in" version="1.1" style="shape-rendering:geometricPrecision; text-rendering:geometricPrecision; image-rendering:optimizeQuality; fill-rule:evenodd; clip-rule:evenodd"
viewBox="0 0 700 700"
 xmlns:xlink="http://www.w3.org/1999/xlink">
 <defs>
  <style type="text/css">
   <![CDATA[
    .fil0 {fill:#A9ABAE}
    .fil1 {fill:white}
   ]]>
  </style>
 </defs>
 <g id="Layer_x0020_1">
  <metadata id="CorelCorpID_0Corel-Layer"/>
  <g id="_2969662287264">
   <path class="fil0" d="M337 16c-84,4 -150,33 -210,84 -2,1 -4,3 -5,4 -34,30 -65,75 -83,117 -93,218 70,475 321,466 181,-7 330,-158 324,-347 -3,-84 -34,-151 -84,-210l-20 -22c-27,-24 -59,-48 -102,-66 -41,-17 -91,-28 -141,-26z"/>
   <path class="fil1" d="M218 107c3,5 6,9 8,14 3,4 8,11 9,15l-17 10 -16 -30c-8,3 -25,18 -32,23 -3,2 -4,4 -7,6l-21 21c-3,3 -4,4 -6,7 -5,7 -20,24 -23,32l29 16 -9 17 -29 -17c-6,6 -19,42 -22,52 -5,18 -10,43 -11,63l39 0 0 30 -39 0c1,20 6,45 11,63 3,11 16,46 22,53l29 -17 10 17 -30 16c3,9 21,29 29,38l21 22c3,2 4,3 7,5 7,6 23,20 32,23l16 -28 17 9c-1,3 -14,24 -17,29 6,6 41,19 52,21 18,6 42,11 63,11l0 -39 30 0 0 39c20,0 45,-5 63,-10 11,-3 46,-16 52,-22 -3,-5 -15,-26 -16,-29l16 -10 17 29c5,-1 21,-14 26,-18 18,-14 29,-26 44,-44 4,-4 16,-21 18,-26l-29 -16 9 -17 30 17c5,-7 18,-42 21,-52 5,-19 11,-43 11,-64l-39 0 0 -30 39 0c0,-20 -5,-44 -11,-62 -2,-11 -16,-47 -21,-53l-30 17 -9 -17 29 -16c-3,-8 -26,-37 -33,-44 -12,-12 -43,-40 -55,-45l-17 29 -16 -9c1,-4 13,-23 16,-29 -6,-6 -41,-18 -52,-22 -16,-5 -44,-10 -63,-10l0 39 -30 0 0 -39c-20,0 -44,5 -63,10 -10,3 -46,16 -52,22z"/>
   <path class="fil0" d="M369 365l85 0c3,0 6,0 9,0 5,-1 17,-9 18,-11 -10,-5 -10,-10 -21,-10l-90 0c-2,-1 -3,-5 -6,-8 -4,-4 -6,-2 -6,-9l0 -144c0,-4 -8,-15 -10,-17 -4,3 -5,7 -8,10 -3,6 -2,7 -2,15l0 140c-1,4 -14,7 -12,23 2,17 23,26 37,14 2,-2 1,-3 6,-3z"/>
  </g>
 </g>
</svg>
