<?xml version="1.0" encoding="UTF-8"?>
<!DOCTYPE svg PUBLIC "-//W3C//DTD SVG 1.1//EN" "http://www.w3.org/Graphics/SVG/1.1/DTD/svg11.dtd">
<!-- Creator: CorelDRAW X8 -->
<svg xmlns="http://www.w3.org/2000/svg" xml:space="preserve" width="0.7in" height="0.7in" version="1.1" style="shape-rendering:geometricPrecision; text-rendering:geometricPrecision; image-rendering:optimizeQuality; fill-rule:evenodd; clip-rule:evenodd"
viewBox="0 0 700 700"
 xmlns:xlink="http://www.w3.org/1999/xlink">
 <defs>
  <style type="text/css">
   <![CDATA[
    .fil0 {fill:#A9ABAE}
    .fil3 {fill:#727272}
    .fil2 {fill:#9C9C9C}
    .fil1 {fill:#FEFEFE}
   ]]>
  </style>
 </defs>
 <g id="Layer_x0020_1">
  <metadata id="CorelCorpID_0Corel-Layer"/>
  <g id="_2969662388880">
   <path class="fil0" d="M109 45c-17,2 -29,13 -33,25 -5,12 -4,43 -4,57l0 236c0,16 -2,41 5,55 5,12 18,23 35,23 39,0 79,0 118,0l325 0c9,0 21,0 29,0 17,-2 29,-13 33,-25 6,-12 4,-41 4,-56l0 -236c0,-15 2,-43 -4,-56 -6,-11 -18,-23 -36,-23 -78,0 -157,0 -236,0 -69,0 -138,0 -207,0 -8,0 -21,0 -29,0z"/>
   <path class="fil0" d="M103 451c-8,1 -16,3 -23,6 -8,4 -8,7 -11,17l-55 169c-3,9 -2,15 3,22 14,22 36,17 68,17l506 0c18,0 37,0 56,0 16,0 28,-12 32,-23 4,-10 0,-16 -2,-24 -2,-7 -4,-14 -7,-21l-42 -127c-7,-21 -5,-28 -23,-33 -15,-5 -36,-4 -52,-4 -131,0 -263,0 -394,0 -17,0 -39,0 -56,1z"/>
   <polygon class="fil1" points="129,389 565,389 564,389 564,97 130,97 "/>
   <path class="fil1" d="M663 652l-633 0c2,5 6,9 11,11 4,2 53,0 60,0 177,0 354,0 531,0 5,0 16,1 20,0 5,-2 9,-6 11,-11z"/>
   <path class="fil1" d="M269 643l155 0c-2,-8 -6,-23 -8,-33 -2,-2 -2,-9 -4,-9l-131 0c-2,0 -6,17 -6,20 -2,7 -5,15 -6,22z"/>
   <path class="fil1" d="M393 567l37 1 -2 -17c-3,-2 -30,0 -36,0l1 16z"/>
   <polygon class="fil1" points="263,567 300,568 301,551 265,551 "/>
   <path class="fil1" d="M133 567l36 1c1,-1 1,-5 2,-8 1,-4 2,-7 2,-9l-36 0 -4 16z"/>
   <polygon class="fil1" points="176,567 213,568 215,551 180,551 "/>
   <polygon class="fil1" points="480,567 517,567 514,551 478,551 "/>
   <path class="fil1" d="M525 568l36 0 -5 -17 -36 0c0,2 2,5 2,8l1 6c1,3 0,1 2,3z"/>
   <path class="fil1" d="M350 567l37 0 -1 -6 0 -10c-3,-1 -30,0 -36,0l0 16z"/>
   <path class="fil1" d="M307 561l0 6 36 0 0 -16c-6,0 -33,-1 -35,0l-1 10z"/>
   <path class="fil1" d="M220 566l1 1 35 0c0,0 0,0 1,-1l1 -15 -35 0 -3 15z"/>
   <path class="fil1" d="M437 566c0,1 0,1 1,1l34 0 1 -1 -3 -15 -35 0 2 15z"/>
   <polygon class="fil1" points="391,522 425,522 424,504 390,504 "/>
   <polygon class="fil1" points="268,522 302,522 304,504 270,504 "/>
   <path class="fil1" d="M186 522l34 0 3 -17 -33 -1c-1,2 -4,15 -4,18z"/>
   <path class="fil1" d="M514 522l34 0 -5 -18 -32 0c0,4 3,14 3,18z"/>
   <path class="fil1" d="M145 521l34 1c1,-4 3,-14 3,-18l-32 0 -5 17z"/>
   <polygon class="fil1" points="227,522 261,522 263,505 229,504 "/>
   <polygon class="fil1" points="432,522 466,522 464,505 431,504 "/>
   <path class="fil1" d="M473 521l34 1c0,-3 -3,-16 -4,-17l-33 -1 3 17z"/>
   <path class="fil1" d="M308 544l35 0 0 -16c-6,0 -31,-1 -35,1l0 15z"/>
   <path class="fil1" d="M182 544l33 0c2,0 2,-1 2,-4 1,-4 2,-8 2,-12l-35 0 -2 16z"/>
   <polygon class="fil1" points="310,516 309,521 343,521 343,504 310,504 "/>
   <polygon class="fil1" points="392,544 427,544 426,528 391,528 "/>
   <polygon class="fil1" points="223,544 259,544 260,528 226,528 "/>
   <polygon class="fil1" points="266,544 301,544 302,528 267,528 "/>
   <path class="fil1" d="M511 544l-2 -16 -35 0c0,4 1,8 2,11 0,6 0,5 9,5 9,0 18,0 26,0z"/>
   <polygon class="fil1" points="434,544 470,544 468,528 433,528 "/>
   <polygon class="fil1" points="139,544 175,544 177,528 143,528 "/>
   <polygon class="fil1" points="519,544 554,544 550,528 516,528 "/>
   <polygon class="fil1" points="383,517 383,504 351,505 351,521 384,521 "/>
   <path class="fil1" d="M385 540l0 -11c-3,-2 -30,-1 -34,-1l0 15 34 0 0 -3z"/>
   <path class="fil1" d="M95 568l31 0 4 -17 -29 0c-2,0 -2,5 -3,7 -1,4 -3,6 -3,10z"/>
   <path class="fil1" d="M567 567l31 1c0,-4 -2,-6 -2,-10 -2,-4 -2,-7 -5,-7l-28 0 4 16z"/>
   <polygon class="fil1" points="109,521 138,522 142,504 115,504 "/>
   <polygon class="fil1" points="555,522 584,522 578,505 551,504 "/>
   <path class="fil1" d="M561 544l29 0c0,-3 -3,-14 -5,-16l-28 0 4 16z"/>
   <polygon class="fil1" points="103,544 132,544 136,528 107,528 "/>
   <path class="fil2" d="M383 517l1 4 -33 0 0 -16c-2,1 -1,3 -1,8 0,3 0,5 0,9 2,0 31,0 35,0 0,-3 0,-4 -2,-5z"/>
   <path class="fil3" d="M310 516c-1,1 -2,4 -1,6 3,0 32,0 34,0l0 -14c0,-3 0,-2 0,-4l0 17 -34 0 1 -5z"/>
   <path class="fil2" d="M385 540l0 3 -34 0 0 -15c-2,1 -1,14 -1,16 3,1 32,1 35,0 1,-2 1,-3 0,-4z"/>
   <path class="fil3" d="M350 567c2,2 35,1 37,1 0,-3 0,-5 -1,-7l1 6 -37 0z"/>
   <path class="fil3" d="M343 567l-36 0 0 -6c-1,1 -1,4 -1,7l37 0c0,0 0,0 0,-1 0,0 0,0 0,0z"/>
   <path class="fil3" d="M473 566l-1 1 -34 0c-1,0 -1,0 -1,-1l0 2 37 0 -1 -2z"/>
   <path class="fil3" d="M257 566c-1,1 -1,1 -1,1l-35 0 -1 -1 -1 2 37 0 1 -2z"/>
  </g>
 </g>
</svg>
