<?xml version="1.0" encoding="UTF-8"?>
<!DOCTYPE svg PUBLIC "-//W3C//DTD SVG 1.1//EN" "http://www.w3.org/Graphics/SVG/1.1/DTD/svg11.dtd">
<!-- Creator: CorelDRAW X8 -->
<svg xmlns="http://www.w3.org/2000/svg" xml:space="preserve" width="0.7in" height="0.7in" version="1.1" style="shape-rendering:geometricPrecision; text-rendering:geometricPrecision; image-rendering:optimizeQuality; fill-rule:evenodd; clip-rule:evenodd"
viewBox="0 0 700 700"
 xmlns:xlink="http://www.w3.org/1999/xlink">
 <defs>
  <style type="text/css">
   <![CDATA[
    .fil0 {fill:#A9ABAE}
   ]]>
  </style>
 </defs>
 <g id="Layer_x0020_1">
  <metadata id="CorelCorpID_0Corel-Layer"/>
  <g id="_1932294857456">
   <path class="fil0" d="M527 431c0,14 -2,38 3,45 2,1 6,4 8,4l150 0c9,0 13,-5 15,-14l0 -35c0,-41 -42,-82 -83,-82 -18,0 -26,1 -44,9 -24,11 -49,43 -49,73z"/>
   <path class="fil0" d="M266 213c0,19 -4,39 4,46 1,2 6,4 9,4l147 0c19,0 14,-26 14,-50 0,-41 -41,-82 -82,-82l-11 0c-42,0 -81,41 -81,82z"/>
   <path class="fil0" d="M3 466c1,9 5,14 14,14l147 0c19,0 14,-26 14,-49 0,-41 -41,-82 -83,-82l-10 0c-41,0 -82,41 -82,82l0 35z"/>
   <path class="fil0" d="M266 650c0,24 -6,50 13,50l147 0c19,0 14,-26 14,-50 0,-41 -41,-82 -82,-82l-11 0c-42,0 -81,41 -81,82z"/>
   <path class="fil0" d="M294 56c0,11 1,18 5,26 14,34 62,49 95,18 37,-36 11,-93 -33,-101l-17 0c-6,1 -11,3 -18,6 -18,9 -32,31 -32,51z"/>
   <path class="fil0" d="M294 493c0,55 62,80 100,44 47,-44 -6,-123 -68,-95l-15 12c-6,5 -8,10 -11,16 -3,6 -6,15 -6,23z"/>
   <path class="fil0" d="M556 276c0,9 2,18 5,25 2,5 9,14 12,18 16,15 42,22 65,11 13,-5 24,-15 30,-28 14,-29 1,-62 -27,-78 -20,-11 -48,-7 -67,11 -1,0 -1,0 -1,1 -9,9 -17,23 -17,40z"/>
   <path class="fil0" d="M31 275c0,50 50,71 83,55 6,-2 12,-6 18,-11 3,-4 10,-12 11,-17 11,-23 7,-48 -11,-66 -37,-39 -101,-9 -101,39z"/>
   <path class="fil0" d="M468 625c0,10 8,17 15,17 8,0 38,-17 46,-21 24,-14 54,-36 73,-57 8,-8 28,-32 28,-40 0,-8 -14,-26 -30,-5 -1,2 -2,2 -3,5 -22,26 -39,43 -69,63 -16,10 -25,14 -42,22 -8,3 -18,6 -18,16z"/>
   <path class="fil0" d="M75 524c0,17 53,63 62,70 15,13 41,30 60,38 3,2 21,10 25,10 10,0 27,-21 0,-32 -29,-11 -77,-42 -98,-68l-22 -26c-11,-13 -27,-5 -27,8z"/>
   <path class="fil0" d="M104 175c0,6 7,15 13,15 14,0 18,-11 28,-23l14 -17c4,-3 6,-4 9,-8 16,-16 38,-31 57,-42 7,-2 15,-7 23,-10 12,-5 18,-5 18,-19 0,-10 -12,-14 -16,-14 -5,0 -39,17 -46,21 -23,14 -36,23 -55,42l-40 42c-1,3 -5,8 -5,13z"/>
   <path class="fil0" d="M440 71c0,14 4,14 17,19l43 22c4,3 5,5 9,7l26 23c9,8 5,2 17,15 3,3 5,5 8,8 3,3 4,7 7,10 2,3 4,6 7,9 12,13 28,1 28,-9 0,-6 -11,-19 -14,-23l-9 -9c-3,-4 -6,-6 -8,-10 -8,-10 -29,-27 -39,-35l-71 -39c-9,-4 -21,0 -21,12z"/>
  </g>
 </g>
</svg>
